<svg viewBox="0 0 24 24" fill="none" xmlns="http://www.w3.org/2000/svg"><g id="SVGRepo_bgCarrier" stroke-width="0"></g><g id="SVGRepo_tracerCarrier" stroke-linecap="round" stroke-linejoin="round"></g><g id="SVGRepo_iconCarrier"> <path d="M17.5 18.25C17.3011 18.25 17.1103 18.171 16.9697 18.0303C16.829 17.8896 16.75 17.6989 16.75 17.5C16.75 17.3011 16.829 17.1103 16.9697 16.9696C17.1103 16.829 17.3011 16.75 17.5 16.75C19.16 16.75 19.75 15.92 19.75 13.57C19.6778 12.7323 19.3121 11.9469 18.7176 11.3524C18.123 10.7578 17.3377 10.3922 16.5 10.32C16.1595 10.3286 15.8222 10.3893 15.5 10.5C15.4027 10.5407 15.2979 10.5601 15.1925 10.5569C15.0871 10.5538 14.9836 10.5282 14.8889 10.4818C14.7942 10.4354 14.7105 10.3693 14.6434 10.2879C14.5764 10.2065 14.5275 10.1118 14.5 10.01C14.1194 8.82082 13.3275 7.80624 12.2663 7.14831C11.2052 6.49038 9.94428 6.23217 8.70993 6.42004C7.47558 6.6079 6.34858 7.22953 5.53121 8.17336C4.71384 9.1172 4.2596 10.3214 4.25001 11.57C4.25001 15.01 5.01001 16.75 6.50001 16.75C6.69893 16.75 6.88969 16.829 7.03034 16.9696C7.171 17.1103 7.25001 17.3011 7.25001 17.5C7.25001 17.6989 7.171 17.8896 7.03034 18.0303C6.88969 18.171 6.69893 18.25 6.50001 18.25C4.00001 18.25 2.75001 16 2.75001 11.57C2.71878 9.99373 3.24027 8.45627 4.22402 7.2243C5.20777 5.99233 6.59173 5.14357 8.13581 4.82525C9.67989 4.50693 11.2867 4.73914 12.6775 5.48159C14.0683 6.22404 15.1553 7.42989 15.75 8.88997C16.014 8.8423 16.2818 8.81887 16.55 8.81997C17.785 8.89574 18.9496 9.42051 19.8246 10.2954C20.6995 11.1703 21.2242 12.335 21.3 13.57C21.25 14.85 21.25 18.25 17.5 18.25Z" fill="#000000"></path> <path d="M14.83 15.65C14.6316 15.6477 14.4417 15.5689 14.3 15.43L12 13.13L9.70001 15.43C9.55784 15.5625 9.36979 15.6346 9.17549 15.6312C8.98119 15.6277 8.7958 15.549 8.65839 15.4116C8.52098 15.2742 8.44227 15.0888 8.43884 14.8945C8.43541 14.7002 8.50753 14.5122 8.64001 14.37L11.47 11.54C11.539 11.4692 11.6214 11.413 11.7124 11.3746C11.8034 11.3362 11.9012 11.3164 12 11.3164C12.0988 11.3164 12.1966 11.3362 12.2876 11.3746C12.3787 11.413 12.4611 11.4692 12.53 11.54L15.36 14.37C15.5005 14.5106 15.5794 14.7012 15.5794 14.9C15.5794 15.0987 15.5005 15.2894 15.36 15.43C15.2172 15.5672 15.028 15.6457 14.83 15.65Z" fill="#000000"></path> <path d="M12 19.1799C11.8011 19.1799 11.6103 19.1009 11.4697 18.9603C11.329 18.8196 11.25 18.6289 11.25 18.4299V12.0699C11.25 11.871 11.329 11.6803 11.4697 11.5396C11.6103 11.399 11.8011 11.3199 12 11.3199C12.1989 11.3199 12.3897 11.399 12.5303 11.5396C12.671 11.6803 12.75 11.871 12.75 12.0699V18.4299C12.75 18.6289 12.671 18.8196 12.5303 18.9603C12.3897 19.1009 12.1989 19.1799 12 19.1799Z" fill="#000000"></path> </g></svg>