<svg width="15" height="20" viewBox="0 0 15 20" fill="none" xmlns="http://www.w3.org/2000/svg">
    <path
        d="M5.63344 8.96535C5.8587 8.96535 6.08176 8.92098 6.28987 8.83477C6.49799 8.74857 6.68709 8.62222 6.84637 8.46293C7.00566 8.30365 7.13201 8.11455 7.21821 7.90643C7.30442 7.69832 7.34878 7.47526 7.34878 7.25C7.34878 7.02474 7.30442 6.80168 7.21821 6.59356C7.13201 6.38545 7.00566 6.19635 6.84637 6.03707C6.68709 5.87778 6.49799 5.75143 6.28987 5.66523C6.08176 5.57902 5.8587 5.53465 5.63344 5.53465C5.1785 5.53465 4.74219 5.71538 4.4205 6.03707C4.09881 6.35876 3.91809 6.79506 3.91809 7.25C3.91809 7.70494 4.09881 8.14124 4.4205 8.46293C4.74219 8.78462 5.1785 8.96535 5.63344 8.96535V8.96535Z"
        fill="#070707" />
    <path
        d="M14.2079 16.9703C14.2079 17.5769 13.9669 18.1586 13.538 18.5875C13.1091 19.0165 12.5273 19.2574 11.9208 19.2574H2.77224C2.16565 19.2574 1.58391 19.0165 1.15499 18.5875C0.726072 18.1586 0.485107 17.5769 0.485107 16.9703V3.24752C0.485107 2.64094 0.726072 2.0592 1.15499 1.63028C1.58391 1.20136 2.16565 0.960396 2.77224 0.960396L9.06184 0.960396L14.2079 6.10644V16.9703ZM2.77224 2.10396C2.46894 2.10396 2.17807 2.22444 1.96361 2.4389C1.74915 2.65336 1.62867 2.94423 1.62867 3.24752V14.6832L4.17196 12.1399C4.26209 12.05 4.37965 11.9927 4.50601 11.9772C4.63237 11.9616 4.76031 11.9887 4.86953 12.0541L7.34649 13.5396L9.81316 10.086C9.86143 10.0185 9.92381 9.96236 9.99597 9.92139C10.0681 9.88042 10.1483 9.85564 10.231 9.84879C10.3137 9.84193 10.3969 9.85316 10.4749 9.88169C10.5528 9.91022 10.6235 9.95536 10.6823 10.014L13.0643 12.396V6.10644H10.7772C10.3222 6.10644 9.88594 5.92571 9.56425 5.60402C9.24256 5.28233 9.06184 4.84603 9.06184 4.39109V2.10396H2.77224Z"
        fill="#070707" />
</svg>
    