<svg width="36" height="29" viewBox="0 0 36 29" fill="none" xmlns="http://www.w3.org/2000/svg">
    <path d="M23.7921 20.599L17.6931 14.5L11.5941 20.599" stroke="black" stroke-width="1.52475"
        stroke-linecap="round" stroke-linejoin="round" />
    <path d="M17.6931 14.5V28.2228" stroke="black" stroke-width="1.52475" stroke-linecap="round"
        stroke-linejoin="round" />
    <path
        d="M30.4857 24.2432C31.9729 23.4324 33.1477 22.1495 33.8248 20.5969C34.5018 19.0443 34.6425 17.3105 34.2247 15.669C33.807 14.0276 32.8544 12.572 31.5175 11.532C30.1806 10.492 28.5354 9.92686 26.8416 9.92574H24.9204C24.4589 8.14063 23.5987 6.48336 22.4045 5.07854C21.2103 3.67373 19.7131 2.55791 18.0256 1.81499C16.3381 1.07206 14.5041 0.72136 12.6616 0.789247C10.819 0.857134 9.0158 1.34184 7.38753 2.20694C5.75926 3.07203 4.3483 4.29499 3.26071 5.78388C2.17312 7.27277 1.43721 8.98884 1.1083 10.8031C0.779397 12.6173 0.866057 14.4825 1.36177 16.2584C1.85748 18.0344 2.74933 19.6748 3.97029 21.0564"
        stroke="black" stroke-width="1.52475" stroke-linecap="round" stroke-linejoin="round" />
    <path d="M23.7921 20.599L17.6931 14.5L11.5941 20.599" stroke="black" stroke-width="1.52475"
        stroke-linecap="round" stroke-linejoin="round" />
</svg>
    